# xmcd CD database file
#
# Track frame offsets:
#	150
#	13025
#	28838
#	44025
#	66100
#	82835
#	102183
#	121790
#	140373
#	159684
#	182425
#	197139
#
# Disc length: 2859 seconds
#
# Revision: 0
# Processed by: cddbd v1.5.1PL0 Copyright (c) Steve Scherf et al.
# Submitted via: CDex 1.51
#
DISCID=9b0b290c
DTITLE=大嶽香子 - THE WINTER ALBUM 〜piano session〜
DYEAR=2004
DGENRE=Instrumental
TTITLE0=ソリすべり
TTITLE1=All I Want For Christmas Is You
TTITLE2=ママがサンタにキスをした＆ウィンター・ワンダーランド 〜オリジナルメドレー〜
TTITLE3=「流転の王妃・最後の皇弟」Main Theme 〜メインテーマ〜
TTITLE4=瞳をとじて
TTITLE5=戦場のメリークリスマス
TTITLE6=Amazing Grace
TTITLE7=最初から今まで
TTITLE8=I say a little prayer
TTITLE9=雪が降る街
TTITLE10=THE ROSE
TTITLE11=君がくれた日(piano session KW004)
EXTD=YEAR: 2004
EXTT0=
EXTT1=
EXTT2=
EXTT3=
EXTT4=
EXTT5=
EXTT6=
EXTT7=
EXTT8=
EXTT9=
EXTT10=
EXTT11=
PLAYORDER=
